<svg width="477" height="477" viewBox="0 0 477 477" fill="none" xmlns="http://www.w3.org/2000/svg">
<g opacity="0.02" clip-path="url(#clip0_113_11873)">
<path d="M238.5 79.5C96.6991 79.5 5.10371 225.958 3.44707 228.625C1.2172 231.433 0.0024108 234.914 0 238.5C0.00282071 241.577 0.898191 244.586 2.57754 247.164C2.59813 247.195 2.61884 247.226 2.63965 247.257C2.91303 247.822 79.7994 397.5 238.5 397.5C396.527 397.5 473.3 249.292 474.236 247.475C474.299 247.372 474.362 247.268 474.422 247.164C476.102 244.586 476.997 241.577 477 238.5C476.999 234.928 475.796 231.46 473.584 228.656C473.574 228.645 473.563 228.635 473.553 228.625C471.896 225.958 380.301 79.5 238.5 79.5ZM238.5 127.2C299.969 127.2 349.8 177.031 349.8 238.5C349.8 299.969 299.969 349.8 238.5 349.8C177.031 349.8 127.2 299.969 127.2 238.5C127.2 177.031 177.031 127.2 238.5 127.2ZM238.5 190.8C225.849 190.8 213.716 195.826 204.771 204.771C195.826 213.716 190.8 225.849 190.8 238.5C190.8 251.151 195.826 263.284 204.771 272.229C213.716 281.174 225.849 286.2 238.5 286.2C251.151 286.2 263.284 281.174 272.229 272.229C281.174 263.284 286.2 251.151 286.2 238.5C286.2 225.849 281.174 213.716 272.229 204.771C263.284 195.826 251.151 190.8 238.5 190.8Z" fill="black"/>
</g>
<defs>
<clipPath id="clip0_113_11873">
<rect width="477" height="477" fill="white"/>
</clipPath>
</defs>
</svg>
