<svg width="224" height="36" viewBox="0 0 224 36" fill="none" xmlns="http://www.w3.org/2000/svg">
<g clipPath="url(#clip0_32_3462)">
<path d="M45.6122 26.2708C46.1823 26.2642 46.7478 26.3747 47.2733 26.5955C47.7988 26.8162 48.2732 27.1425 48.667 27.554C49.082 27.9613 49.4094 28.4488 49.6292 28.9867C49.8489 29.5246 49.9563 30.1016 49.9448 30.6823C49.9567 31.2566 49.8509 31.8272 49.6341 32.3593C49.4172 32.8914 49.0937 33.3738 48.6835 33.7768C48.2752 34.1812 47.7909 34.5012 47.2583 34.7185C46.7258 34.9357 46.1555 35.0459 45.5802 35.0426C45.0049 35.0394 44.4358 34.9229 43.9057 34.6998C43.3757 34.4766 42.895 34.1512 42.4912 33.7423C41.8822 33.127 41.4691 32.3458 41.3036 31.497C41.1381 30.6481 41.2276 29.7694 41.561 28.9712C41.8943 28.1729 42.4566 27.4908 43.1773 27.0103C43.8979 26.5299 44.7455 26.2726 45.6122 26.2708ZM45.5949 27.8263C45.2309 27.8185 44.8693 27.8861 44.5329 28.0248C44.1965 28.1636 43.8926 28.3706 43.6405 28.6325C43.377 28.904 43.1712 29.2257 43.0353 29.5784C42.8994 29.9312 42.8363 30.3076 42.8498 30.6853C42.8325 31.1029 42.9137 31.5187 43.0868 31.8994C43.2599 32.28 43.5201 32.6148 43.8465 32.8768C44.3451 33.2905 44.975 33.5138 45.6234 33.5068C45.9846 33.5122 46.343 33.4423 46.6755 33.3015C47.0081 33.1608 47.3074 32.9522 47.5545 32.6893C48.0677 32.1423 48.3529 31.4208 48.3519 30.6715C48.3509 29.9222 48.0639 29.2014 47.5492 28.6558C47.2996 28.389 46.9967 28.1774 46.6601 28.0346C46.3235 27.8917 45.9606 27.8207 45.5949 27.8263Z" fill="white"/>
<path d="M56.684 26.4785V27.557H57.0365C59.0465 27.557 60.0518 28.3843 60.0523 30.0388C60.064 30.4496 59.9834 30.8579 59.8162 31.2335C59.6597 31.5599 59.4202 31.8397 59.1217 32.045C58.8395 32.2489 58.518 32.3922 58.1776 32.4658C57.6838 32.5443 57.1838 32.5775 56.684 32.5648V34.8305H55.0792V32.5648C54.4956 32.5804 53.913 32.5096 53.3503 32.3548C52.9036 32.2173 52.5148 31.9368 52.2438 31.5568C51.9435 31.1253 51.792 30.608 51.8124 30.083C51.7961 29.5908 51.9163 29.1037 52.1596 28.6753C52.3887 28.2968 52.7333 28.0016 53.1428 27.833C53.7654 27.6196 54.4232 27.527 55.0807 27.56V26.4785H56.684ZM55.0792 29.0225H54.7093C54.3172 28.9765 53.9215 29.072 53.5938 29.2918C53.496 29.3968 53.4208 29.5208 53.3729 29.656C53.3249 29.7911 53.3052 29.9347 53.315 30.0778C53.2967 30.2349 53.3181 30.3941 53.3772 30.541C53.4363 30.6878 53.5311 30.8175 53.6532 30.9185C53.9537 31.0926 54.2994 31.1736 54.6462 31.151H55.0792V29.0225ZM56.684 29.0225V31.151H57.2102C57.3995 31.1759 57.592 31.1621 57.7758 31.1106C57.9597 31.059 58.1312 30.9707 58.2798 30.851C58.4609 30.6312 58.5541 30.3523 58.5414 30.068C58.55 29.9278 58.53 29.7873 58.4825 29.655C58.4351 29.5228 58.3613 29.4015 58.2655 29.2985C57.9409 29.074 57.5451 28.9761 57.153 29.0233L56.684 29.0225Z" fill="white"/>
<path d="M61.5059 26.4785H66.1324V28.046H64.6073V34.8305H62.9912V28.046H61.5059V26.4785Z" fill="white"/>
<path d="M70.827 26.4785H72.4431L75.6626 34.8305H74.0089L73.3542 33.11H69.9363L69.2553 34.8305H67.6016L70.827 26.4785ZM71.6456 28.6925L70.5218 31.5598H72.7626L71.6456 28.6925Z" fill="white"/>
<path d="M83.3606 34.8305L81.0439 28.6895L78.6859 34.8305H76.9961L80.2283 26.4785H81.8444L85.0639 34.8305H83.3606Z" fill="white"/>
<path d="M87.0723 34.8305V26.4785H88.6651V29.633H89.0123C89.5742 29.6184 90.1347 29.6962 90.6713 29.8633C91.1338 30.0317 91.534 30.3367 91.8184 30.7378C92.1468 31.1878 92.3168 31.7337 92.3017 32.2903C92.318 32.806 92.173 33.314 91.8868 33.7438C91.6483 34.1077 91.3145 34.3995 90.9216 34.5875C90.4427 34.7717 89.931 34.8557 89.4183 34.8343L87.0723 34.8305ZM88.6651 31.049V33.3148H89.0642C89.5202 33.3584 89.9793 33.2737 90.3894 33.0703C90.5092 32.9688 90.6024 32.8398 90.6609 32.6944C90.7195 32.5489 90.7416 32.3914 90.7254 32.2355C90.7254 31.4445 90.1491 31.049 88.9966 31.049H88.6651Z" fill="white"/>
<path d="M95.5556 26.4785H97.1078L99.0486 32.3038L101.007 26.4785H102.558L103.962 34.8305H102.421L101.524 29.558L99.747 34.8305H98.3413L96.5786 29.558L95.6601 34.8328H94.1094L95.5556 26.4785Z" fill="white"/>
<path d="M110.231 26.2708C110.801 26.2642 111.367 26.3747 111.892 26.5955C112.418 26.8162 112.892 27.1425 113.286 27.554C113.701 27.9613 114.029 28.4488 114.248 28.9867C114.468 29.5246 114.575 30.1016 114.564 30.6823C114.576 31.2566 114.47 31.8272 114.253 32.3592C114.036 32.8913 113.713 33.3737 113.303 33.7768C112.894 34.1812 112.41 34.5012 111.877 34.7185C111.345 34.9357 110.775 35.0459 110.199 35.0426C109.624 35.0394 109.055 34.9229 108.525 34.6998C107.995 34.4766 107.514 34.1512 107.11 33.7423C106.501 33.127 106.088 32.3458 105.923 31.497C105.757 30.6481 105.847 29.7694 106.18 28.9712C106.513 28.1729 107.076 27.4908 107.796 27.0103C108.517 26.5299 109.365 26.2726 110.231 26.2708ZM110.214 27.8263C109.85 27.8185 109.488 27.8861 109.152 28.0248C108.816 28.1636 108.512 28.3706 108.26 28.6325C107.996 28.9036 107.791 29.2248 107.655 29.577C107.519 29.9291 107.455 30.3051 107.468 30.6823C107.451 31.0999 107.532 31.5157 107.705 31.8964C107.878 32.277 108.138 32.6118 108.465 32.8738C108.964 33.2875 109.593 33.5108 110.242 33.5038C110.603 33.5092 110.961 33.4393 111.294 33.2985C111.626 33.1578 111.926 32.9492 112.173 32.6863C112.686 32.1393 112.971 31.4178 112.97 30.6685C112.969 29.9192 112.682 29.1984 112.168 28.6528C111.918 28.3867 111.615 28.1757 111.278 28.0333C110.942 27.891 110.579 27.8205 110.214 27.8263Z" fill="white"/>
<path d="M122.534 34.8305L120.217 28.6895L117.862 34.8305H116.172L119.404 26.4785H121.019L124.239 34.8305H122.534Z" fill="white"/>
<path d="M130.204 26.2708C130.774 26.2644 131.339 26.375 131.865 26.5957C132.391 26.8165 132.865 27.1426 133.259 27.554C133.674 27.9615 134.001 28.449 134.221 28.9869C134.44 29.5247 134.548 30.1016 134.537 30.6823C134.548 31.2566 134.443 31.8272 134.226 32.3593C134.009 32.8914 133.686 33.3737 133.275 33.7768C132.867 34.1812 132.383 34.5012 131.85 34.7184C131.318 34.9357 130.747 35.0458 130.172 35.0426C129.597 35.0394 129.028 34.9229 128.498 34.6998C127.967 34.4766 127.487 34.1512 127.083 33.7423C126.474 33.1269 126.061 32.3457 125.895 31.4968C125.73 30.6479 125.819 29.7691 126.153 28.9708C126.486 28.1726 127.049 27.4904 127.77 27.01C128.49 26.5296 129.337 26.2725 130.204 26.2708ZM130.187 27.8263C129.823 27.8184 129.461 27.8861 129.125 28.0248C128.788 28.1636 128.484 28.3705 128.232 28.6325C127.969 28.9035 127.763 29.2248 127.627 29.5769C127.491 29.9291 127.428 30.3051 127.441 30.6823C127.423 31.0999 127.505 31.5158 127.678 31.8964C127.851 32.2771 128.111 32.6118 128.438 32.8738C128.936 33.2876 129.566 33.5109 130.214 33.5038C130.576 33.5091 130.934 33.4391 131.266 33.2983C131.599 33.1576 131.898 32.9491 132.146 32.6863C132.659 32.1394 132.944 31.4177 132.943 30.6683C132.942 29.9189 132.655 29.1982 132.14 28.6528C131.89 28.3867 131.587 28.1757 131.251 28.0333C130.914 27.891 130.552 27.8205 130.187 27.8263Z" fill="white"/>
<path d="M137.082 26.4785H141.236V28.034H138.664V34.8305H137.082V26.4785Z" fill="white"/>
<path d="M143.42 26.4785H144.998V34.8305H143.42V26.4785Z" fill="white"/>
<path d="M151.505 31.1683H150.97C150.399 31.1839 149.829 31.144 149.266 31.049C148.881 30.9616 148.521 30.7879 148.213 30.5413C147.893 30.301 147.649 29.9747 147.508 29.6008C147.356 29.1267 147.288 28.6302 147.305 28.133V26.4785H148.922V28.1083C148.879 28.5277 148.988 28.9486 149.229 29.2948C149.606 29.5704 150.074 29.6902 150.538 29.6293H151.505V26.4793H153.109V34.8305H151.505V31.1683Z" fill="white"/>
<path d="M156.064 26.4785H157.681V29.633H160.475V26.483H162.085V34.8305H160.475V31.1683H157.681V34.8305H156.064V26.4785Z" fill="white"/>
<path d="M171.141 26.4785V34.8305H169.547V29.6008L166.426 34.8305H165.041V26.4785H166.634V31.8785L169.798 26.4785H171.141Z" fill="white"/>
<path d="M180.195 26.4799V34.8319H178.599V29.6021L175.477 34.8319H174.092V26.4799H175.685V31.8799L178.849 26.4799H180.195ZM174.869 24.2374H176.127C176.225 24.393 176.369 24.5147 176.539 24.5861C176.744 24.6696 176.964 24.7094 177.185 24.7031C177.425 24.7066 177.664 24.6602 177.885 24.5666C178.034 24.4946 178.159 24.38 178.243 24.2374H179.501C179.47 24.4671 179.393 24.6881 179.274 24.8872C179.155 25.0863 178.997 25.2591 178.809 25.3954C178.328 25.7136 177.756 25.8671 177.18 25.8326C176.777 25.8444 176.376 25.7779 175.999 25.6369C175.7 25.5192 175.436 25.3265 175.233 25.0774C175.039 24.8336 174.913 24.5426 174.869 24.2344V24.2374Z" fill="white"/>
<path d="M187.459 34.8305V26.4785H189.075V33.3995H191.88V26.4785H193.49V33.3995H195.192V36.083H193.701V34.8305H187.459Z" fill="white"/>
<path d="M197.262 26.4785H201.83V28.034H198.843V29.5445H201.83V31.0715H198.843V33.269H201.83V34.8305H197.262V26.4785Z" fill="white"/>
<path d="M204.357 26.4785H205.973V29.633H208.768V26.483H210.378V34.8305H208.768V31.1683H205.973V34.8305H204.357V26.4785Z" fill="white"/>
<path d="M212.514 26.4785H217.14V28.046H215.615V34.8305H214.003V28.046H212.517L212.514 26.4785Z" fill="white"/>
<path d="M219.275 26.4805H220.966C221.635 26.445 222.305 26.5306 222.943 26.7332C223.341 26.8966 223.676 27.1831 223.899 27.5507C224.141 27.96 224.263 28.4293 224.249 28.9045C224.269 29.4271 224.107 29.9405 223.791 30.358C223.474 30.7524 223.038 31.035 222.547 31.1642C221.995 31.2743 221.432 31.3184 220.869 31.2955V34.8325H219.275V26.4805ZM220.869 29.7452H221.376C221.654 29.759 221.933 29.7301 222.202 29.6597C222.352 29.6074 222.481 29.5086 222.57 29.3777C222.662 29.2363 222.708 29.0705 222.703 28.9022C222.712 28.7612 222.682 28.6205 222.616 28.4957C222.549 28.3709 222.449 28.267 222.327 28.1957C222.008 28.0596 221.66 28.003 221.314 28.0307H220.863L220.869 29.7452Z" fill="white"/>
<path d="M41.2441 19.8286V0.0585938H51.6023V3.72834H45.0153V7.51809H45.8369C47.2229 7.47771 48.6062 7.66367 49.932 8.06859C51.0167 8.45608 51.9456 9.18498 52.5787 10.1453C53.298 11.2097 53.6677 12.471 53.6363 13.7543C53.6939 14.9077 53.4178 16.0532 52.841 17.0543C52.2903 17.8934 51.5382 18.5818 50.6529 19.0568C49.451 19.6306 48.1245 19.8961 46.7938 19.8293L41.2441 19.8286ZM45.0153 10.8781V16.2406H45.9579C47.6823 16.2406 48.7734 16.0156 49.2315 15.5656C49.4648 15.3266 49.6463 15.0421 49.7645 14.7299C49.8827 14.4178 49.9351 14.0846 49.9185 13.7513C49.9185 11.8333 48.5444 10.8746 45.7963 10.8751L45.0153 10.8781Z" fill="white"/>
<path d="M56.3848 0.0591548H60.3852C61.9689 -0.024008 63.5547 0.179263 65.0659 0.659155C66.0084 1.04627 66.8017 1.72473 67.3292 2.5949C67.9015 3.56426 68.1881 4.67506 68.156 5.79965C68.2022 7.03691 67.8194 8.2522 67.0721 9.24065C66.3202 10.1735 65.2891 10.8421 64.1293 11.1487C62.8217 11.4075 61.488 11.5113 60.1559 11.4577V19.8292H56.3848V0.0591548ZM60.1567 7.78415H61.3549C62.0171 7.81775 62.6805 7.74971 63.322 7.5824C63.6754 7.45817 63.9797 7.22424 64.1902 6.91491C64.4083 6.58088 64.5189 6.18838 64.5074 5.7899C64.5294 5.45635 64.4578 5.12328 64.3008 4.82801C64.1437 4.53274 63.9073 4.28694 63.6182 4.11815C62.8625 3.79578 62.0395 3.66167 61.2203 3.7274H60.1567V7.78415Z" fill="white"/>
<path d="M85.7229 0.0585938V19.8286H81.951V7.45359L74.562 19.8286H71.2832V0.0585938H75.0551V12.8401L82.5433 0.0585938H85.7229Z" fill="white"/>
<path d="M87.7441 0.0585938H98.6953V3.76809H95.0873V19.8286H91.262V3.76809H87.7464L87.7441 0.0585938Z" fill="white"/>
<path d="M106.774 0.0585938H110.599L118.219 19.8286H114.3L112.752 15.7591H104.664L103.053 19.8316H99.1328L106.774 0.0585938ZM108.71 5.30034L106.051 12.0878H111.353L108.71 5.30034Z" fill="white"/>
<path d="M120.57 0.0585938H124.396V7.51809H131.01V0.0585938H134.822V19.8286H131.011V11.1601H124.396V19.8286H120.57V0.0585938Z" fill="white"/>
<path d="M157.006 3.53277L154.368 6.04227C153.617 5.16929 152.689 4.46498 151.645 3.9757C150.601 3.48641 149.465 3.22325 148.312 3.20352C147.425 3.1911 146.545 3.35623 145.723 3.68915C144.901 4.02207 144.154 4.51602 143.527 5.14181C142.899 5.76759 142.404 6.51251 142.07 7.33252C141.736 8.15254 141.571 9.03101 141.583 9.91602C141.56 11.1413 141.857 12.3515 142.444 13.4275C143.012 14.4437 143.856 15.2787 144.88 15.8358C145.951 16.4239 147.156 16.7252 148.379 16.7103C149.412 16.723 150.435 16.5143 151.38 16.0983C152.499 15.5351 153.51 14.7815 154.368 13.8715L156.924 16.534C155.734 17.7668 154.328 18.7716 152.775 19.4988C151.36 20.0709 149.844 20.3516 148.317 20.3238C146.924 20.3745 145.534 20.1413 144.234 19.6384C142.933 19.1355 141.749 18.3734 140.754 17.3988C139.776 16.4171 139.01 15.2456 138.504 13.9569C137.998 12.6682 137.762 11.2896 137.811 9.90627C137.777 8.06637 138.24 6.25124 139.151 4.65102C140.07 3.09393 141.398 1.81619 142.99 0.955016C144.632 0.0295354 146.487 -0.452111 148.372 -0.442234C150.013 -0.437417 151.633 -0.0798655 153.123 0.606075C154.613 1.29201 155.937 2.29023 157.006 3.53277Z" fill="white"/>
<path d="M159.742 19.8286V0.0585938H163.514V7.51809H164.335C165.665 7.48286 166.992 7.66684 168.262 8.06259C169.356 8.46237 170.303 9.18484 170.976 10.1341C171.754 11.1991 172.157 12.4915 172.121 13.8091C172.159 15.0301 171.816 16.2328 171.138 17.2501C170.574 18.1111 169.784 18.8013 168.855 19.2458C167.72 19.6826 166.507 19.8815 165.292 19.8301L159.742 19.8286ZM163.514 10.8781V16.2406H164.457C166.019 16.2406 167.065 16.0478 167.595 15.6623C167.878 15.4223 168.099 15.1169 168.237 14.7727C168.376 14.4285 168.428 14.0558 168.389 13.6868C168.389 11.8143 167.025 10.8781 164.295 10.8781H163.514Z" fill="white"/>
<path d="M174.896 0.0585938H178.708V6.87459L184.086 0.0585938H188.615L181.699 8.88234L189.291 19.8323H184.819L178.711 11.0483V19.8286H174.899L174.896 0.0585938Z" fill="white"/>
<path d="M205.85 0.0585938V19.8286H202.078V7.45359L194.689 19.8286H191.41V0.0585938H195.181V12.8401L202.67 0.0585938H205.85Z" fill="white"/>
<path d="M224.248 0.0578203V19.8278H220.477V7.45282L213.087 19.8278H209.809V0.0578203H213.581V12.8393L221.067 0.0578203H224.248ZM211.64 -5.25068H214.617C214.852 -4.88347 215.192 -4.59583 215.594 -4.42568C216.079 -4.22943 216.6 -4.1357 217.123 -4.15043C217.691 -4.14283 218.254 -4.25264 218.777 -4.47293C219.131 -4.64362 219.426 -4.91503 219.626 -5.25293H222.602C222.53 -4.70919 222.348 -4.18577 222.066 -3.71443C221.785 -3.24309 221.411 -2.83364 220.966 -2.51093C219.826 -1.75801 218.472 -1.3948 217.107 -1.47593C216.154 -1.44791 215.204 -1.6056 214.312 -1.94018C213.604 -2.21818 212.98 -2.67419 212.5 -3.26393C212.043 -3.8386 211.746 -4.52418 211.64 -5.25068Z" fill="white"/>
<path d="M150.435 9.85516C149.998 9.85613 149.575 9.70746 149.236 9.43407C148.896 9.16069 148.662 8.77921 148.571 8.35357C148.48 7.92794 148.538 7.48403 148.736 7.09625C148.934 6.70847 149.26 6.4004 149.658 6.22366C149.293 6.11236 148.913 6.05575 148.531 6.05566C147.778 6.05566 147.041 6.2785 146.415 6.696C145.789 7.11349 145.301 7.70689 145.013 8.40116C144.724 9.09543 144.649 9.85938 144.796 10.5964C144.943 11.3334 145.305 12.0104 145.838 12.5418C146.371 13.0732 147.049 13.4351 147.788 13.5817C148.526 13.7283 149.292 13.653 149.988 13.3654C150.684 13.0779 151.278 12.5909 151.697 11.9661C152.115 11.3412 152.339 10.6066 152.339 9.85516C152.338 9.47389 152.281 9.09477 152.17 8.73016C152.021 9.06574 151.778 9.35092 151.47 9.55074C151.162 9.75057 150.802 9.85636 150.435 9.85516Z" fill="white"/>
<path d="M0.384859 20.7949C0.148259 22.1148 0.019549 23.4517 0 24.7924L0 34.4832H9.34035C10.737 34.5068 12.133 34.4051 13.5114 34.1794C7.74789 31.3232 3.12179 26.6062 0.384859 20.7949Z" fill="white"/>
<path d="M24.6613 0.09375C23.2441 0.125172 21.8322 0.278489 20.4414 0.552C26.0804 3.30878 30.6253 7.87917 33.344 13.527C33.5536 12.1942 33.6514 10.8463 33.6364 9.49725V0.09375H24.6613Z" fill="white"/>
<path d="M9.19302 0.09375H0V9.49725C0 23.1097 10.8805 34.4842 24.5152 34.4842H33.6376V24.7935C33.6667 21.5678 33.0566 18.3682 31.8423 15.3786C30.628 12.389 28.8335 9.66829 26.5619 7.37296C24.2902 5.07763 21.5863 3.2529 18.6056 2.00368C15.6248 0.754461 12.426 0.10538 9.19302 0.09375ZM16.9278 29.1758C14.6054 29.1758 12.3353 28.4886 10.4043 27.2013C8.47335 25.9139 6.96835 24.0842 6.07963 21.9434C5.19091 19.8027 4.95838 17.447 5.41144 15.1744C5.86451 12.9017 6.98282 10.8142 8.62497 9.17571C10.2671 7.53724 12.3593 6.42142 14.637 5.96936C16.9148 5.51731 19.2757 5.74932 21.4212 6.63606C23.5668 7.5228 25.4006 9.02443 26.6909 10.9511C27.9811 12.8777 28.6697 15.1428 28.6697 17.46C28.6704 18.9987 28.3672 20.5225 27.7773 21.9442C27.1875 23.366 26.3226 24.6578 25.2321 25.7458C24.1417 26.8339 22.847 27.6968 21.4221 28.2853C19.9971 28.8739 18.47 29.1764 16.9278 29.1758Z" fill="white"/>
<path d="M19.5246 17.4584C18.9301 17.4605 18.3529 17.2584 17.8901 16.8861C17.4273 16.5138 17.1069 15.9939 16.9829 15.4137C16.8588 14.8336 16.9386 14.2285 17.2089 13.7002C17.4791 13.1718 17.9234 12.7523 18.467 12.5121C17.9676 12.3615 17.4485 12.2857 16.9268 12.2871C15.901 12.2871 14.8982 12.5906 14.0453 13.1593C13.1924 13.7279 12.5276 14.5361 12.135 15.4817C11.7425 16.4274 11.6398 17.4679 11.8399 18.4717C12.04 19.4756 12.534 20.3977 13.2593 21.1214C13.9847 21.8451 14.9089 22.338 15.915 22.5377C16.9211 22.7374 17.9639 22.6349 18.9116 22.2432C19.8594 21.8515 20.6694 21.1882 21.2393 20.3372C21.8092 19.4862 22.1134 18.4856 22.1134 17.4621C22.1136 16.9414 22.0364 16.4235 21.8841 15.9254C21.6827 16.382 21.3522 16.7702 20.9332 17.0425C20.5141 17.3147 20.0247 17.4593 19.5246 17.4584Z" fill="white"/>
</g>
<defs>
<clipPath id="clip0_32_3462">
<rect width="224" height="36" fill="white"/>
</clipPath>
</defs>
</svg>
